<svg width="19" height="20" viewBox="0 0 19 20" fill="none" xmlns="http://www.w3.org/2000/svg">
<path fill-rule="evenodd" clip-rule="evenodd" d="M5.54167 9.99992C5.54167 10.9203 4.83265 11.6666 3.95833 11.6666C3.08402 11.6666 2.375 10.9203 2.375 9.99992C2.375 9.07925 3.08402 8.33325 3.95833 8.33325C4.83265 8.33325 5.54167 9.07925 5.54167 9.99992ZM9.49998 8.3333C10.3743 8.3333 11.0833 9.0793 11.0833 9.99997C11.0833 10.9203 10.3743 11.6666 9.49998 11.6666C8.62567 11.6666 7.91665 10.9203 7.91665 9.99997C7.91665 9.0793 8.62567 8.3333 9.49998 8.3333ZM16.625 9.99997C16.625 9.0793 15.916 8.3333 15.0417 8.3333C14.1674 8.3333 13.4584 9.0793 13.4584 9.99997C13.4584 10.9203 14.1674 11.6666 15.0417 11.6666C15.916 11.6666 16.625 10.9203 16.625 9.99997Z" fill="#7B6861"/>
</svg>
