<svg width="7" height="12" viewBox="0 0 7 12" fill="none" xmlns="http://www.w3.org/2000/svg">
<mask id="mask0_26_250" style="mask-type:luminance" maskUnits="userSpaceOnUse" x="0" y="0" width="7" height="12">
<path d="M-1.43051e-06 0H6.61963V12H-1.43051e-06V0Z" fill="white"/>
</mask>
<g mask="url(#mask0_26_250)">
<path d="M1.08719 0.184799C0.841674 -0.0620482 0.442581 -0.0630829 0.195734 0.182434C-0.0511127 0.42795 -0.0521474 0.827191 0.193369 1.07389L5.54211 6.43682C5.78762 6.68367 6.18672 6.68485 6.43356 6.43919C6.68041 6.19367 6.68145 5.79458 6.43593 5.54758L1.08719 0.184799Z" fill="#7B6861"/>
<path d="M0.193416 10.9102C-0.0521002 11.157 -0.0510654 11.5563 0.195781 11.8018C0.442628 12.0473 0.841722 12.0463 1.08724 11.7994L6.43612 6.43663C6.68164 6.18978 6.68046 5.79054 6.43361 5.54503C6.18676 5.29951 5.78767 5.30069 5.54216 5.54754L0.193416 10.9103V10.9102Z" fill="#7B6861"/>
</g>
</svg>
