<svg width="11" height="19" viewBox="0 0 11 19" fill="none" xmlns="http://www.w3.org/2000/svg">
<mask id="mask0_26_55" style="mask-type:luminance" maskUnits="userSpaceOnUse" x="0" y="0" width="11" height="19">
<path d="M10.4811 0H0V19H10.4811V0Z" fill="white"/>
</mask>
<g mask="url(#mask0_26_55)">
<path d="M8.75955 0.292507C9.14829 -0.0983332 9.78018 -0.0999715 10.171 0.288763C10.5619 0.677497 10.5635 1.30963 10.1748 1.70024L1.70593 10.1915C1.3172 10.5824 0.685301 10.5843 0.29446 10.1953C-0.0963801 9.80655 -0.0980183 9.17465 0.290716 8.78358L8.75955 0.292507Z" fill="#7B6861"/>
<path d="M10.1748 17.2745C10.5635 17.6653 10.5619 18.2974 10.171 18.6862C9.78018 19.0749 9.14828 19.0733 8.75955 18.6824L0.290477 10.1914C-0.0982568 9.80051 -0.0963845 9.16838 0.294456 8.77964C0.685297 8.39091 1.31719 8.39278 1.70593 8.78362L10.1748 17.2747V17.2745Z" fill="#7B6861"/>
</g>
</svg>
