<svg width="22" height="19" viewBox="0 0 22 19" fill="none" xmlns="http://www.w3.org/2000/svg">
<path d="M20.973 2.05305H1.02652C0.44 2.05305 0 1.61348 0 1.02652C0 0.43957 0.44 0 1.02652 0H20.973C21.56 0 22 0.44 22 1.02652C22 1.61305 21.56 2.05305 20.973 2.05305ZM20.973 10.413H1.02652C0.43957 10.413 0 9.97305 0 9.38652C0 8.8 0.44 8.36 1.02652 8.36H20.973C21.56 8.36 22 8.8 22 9.38652C22 9.97305 21.56 10.413 20.973 10.413ZM20.973 18.773H1.02652C0.43957 18.773 0 18.333 0 17.7461C0 17.1591 0.44 16.7196 1.02652 16.7196H20.973C21.56 16.7196 22 17.1596 22 17.7461C22 18.3326 21.56 18.773 20.973 18.773Z" fill="#7B6861"/>
</svg>
