<svg width="28" height="28" viewBox="0 0 28 28" fill="none" xmlns="http://www.w3.org/2000/svg">
<path d="M13.571 0C6.05242 0 0 5.70044 0 12.7282C0 17.0557 2.31737 20.8744 5.81614 23.2159V27.1358C5.81614 27.6445 6.14632 28 6.57344 28C6.71582 28 6.85819 27.9478 6.9521 27.8989L10.6387 25.2509C11.5838 25.4531 12.5289 25.5052 13.5225 25.5052C21.0441 25.5052 27.0965 19.8048 27.0965 12.7771C27.142 5.70044 21.0441 0 13.571 0ZM7.4701 14.8153C6.57042 14.8153 5.86157 14 5.86157 13.0836C5.86157 12.1151 6.61888 11.352 7.4701 11.352C8.36978 11.352 9.07862 12.1672 9.07862 13.0836C9.12406 14 8.36978 14.8153 7.4701 14.8153ZM13.6649 14.8153C12.7652 14.8153 12.0564 14 12.0564 13.0836C12.0564 12.1151 12.8137 11.352 13.6649 11.352C14.5646 11.352 15.2734 12.1672 15.2734 13.0836C15.2734 14 14.5161 14.8153 13.6649 14.8153ZM19.6234 14.8153C18.7237 14.8153 18.0149 14 18.0149 13.0836C18.0149 12.1151 18.7722 11.352 19.6234 11.352C20.5231 11.352 21.2319 12.1672 21.2319 13.0836C21.2319 14 20.5231 14.8153 19.6234 14.8153Z" fill="#7B6861" fill-opacity="0.67"/>
</svg>
