<svg width="12" height="12" viewBox="0 0 12 12" fill="none" xmlns="http://www.w3.org/2000/svg">
<path d="M6.97929 6.01255L11.8119 10.845C12.0672 11.1139 12.0618 11.5374 11.7996 11.7997C11.5373 12.0619 11.1138 12.0673 10.8449 11.8121L6.01241 6.97943L1.17994 11.8121C0.911019 12.0673 0.487553 12.0619 0.225232 11.7997C-0.0369418 11.5374 -0.0423671 11.1139 0.212915 10.845L5.04554 6.01255L0.212915 1.18007C0.0327073 1.0088 -0.0404609 0.753373 0.0218567 0.512753C0.0840277 0.272133 0.272007 0.0841539 0.512626 0.0218362C0.753245 -0.0404815 1.00867 0.0328334 1.17994 0.213042L6.01241 5.04567L10.845 0.213042C11.114 -0.0422411 11.5374 -0.0368158 11.7997 0.225359C12.0619 0.487679 12.0673 0.911147 11.8121 1.18007L6.97929 6.01255Z" fill="#7B6861"/>
</svg>
