<svg width="19" height="20" viewBox="0 0 19 20" fill="none" xmlns="http://www.w3.org/2000/svg">
<g clip-path="url(#clip0_28_114)">
<path d="M0 10.1858C0 12.1365 1.62812 13.718 3.63681 13.718C5.6455 13.718 7.27362 12.1367 7.27362 10.1858C7.27362 8.23486 5.6455 6.65356 3.63681 6.65356C1.62812 6.65356 0 8.23486 0 10.1858Z" fill="#7B6861"/>
<path d="M11.48 17.25C11.48 18.7688 12.7477 20 14.3115 20C15.8752 20 17.1429 18.7688 17.1429 17.25C17.1429 15.7312 15.8752 14.5 14.3115 14.5C12.7477 14.5 11.48 15.7312 11.48 17.25Z" fill="#7B6861"/>
<path d="M13.3372 2.75C13.3372 4.2688 14.6048 5.5 16.1686 5.5C17.7323 5.5 19 4.2688 19 2.75C19 1.2312 17.7323 0 16.1686 0C14.6048 0 13.3372 1.2312 13.3372 2.75Z" fill="#7B6861"/>
<path d="M4.88257 12.7917L5.69147 11.4309L13.5063 15.8127L12.6974 17.1736L4.88257 12.7917ZM5.10377 8.19678L13.9155 3.25562L14.7244 4.61621L5.91293 9.5581L5.10402 8.19678H5.10377Z" fill="#7B6861"/>
</g>
<defs>
<clipPath id="clip0_28_114">
<rect width="19" height="20" fill="white"/>
</clipPath>
</defs>
</svg>
