<svg width="32" height="28" viewBox="0 0 32 28" fill="none" xmlns="http://www.w3.org/2000/svg">
<mask id="mask0_25_82" style="mask-type:luminance" maskUnits="userSpaceOnUse" x="0" y="0" width="32" height="28">
<path d="M31.4571 0H0V28H31.4571V0Z" fill="white"/>
</mask>
<g mask="url(#mask0_25_82)">
<path d="M30.4044 10.323L16.0912 0.2184C15.6781 -0.0728 15.1173 -0.0728 14.7337 0.2184L0.33152 10.323C-0.140681 10.6434 0.0954198 11.3714 0.685671 11.3714H3.5779V27.0962C3.5779 27.4165 3.84352 27.6786 4.16815 27.6786H11.2512C11.5758 27.6786 11.8414 27.4165 11.8414 27.0962V18.3602H18.9244V27.0962C18.9244 27.4165 19.1901 27.6786 19.5147 27.6786H26.5977C26.9223 27.6786 27.188 27.4165 27.188 27.0962V11.3714H30.0802C30.6409 11.3714 30.877 10.6434 30.4048 10.323H30.4044Z" fill="#7B6861"/>
</g>
</svg>
